<svg xmlns="http://www.w3.org/2000/svg" viewBox="0 0 1246.97651 1387.48732"><defs><style>.a{fill:#f25a5a;}.b{fill:#e84b4b;}.c{fill:#fc0800;}.d{fill:#fff;}</style></defs><title>лого финал миланго</title><path class="a" d="M192.24306,397.91234c38.33139,111.69781,87.88748,209.02691,143.08932,284.76988-136.54092,65.46664-259.3637,74.5362-333.31585,11.44793C-93.764,612.42-82.9586,430.70151,12.743,229.73783,62.25463,287.172,122.73707,344.23827,192.24306,397.91234Z" transform="translate(137.69078 533.60693)"/><path class="a" d="M603.37079-376.87268c129.04681-57.53464,244.13129-63.01835,314.70972-2.80825,97.5453,83.21555,84.5537,270.15557-16.09117,475.51687A1303.28049,1303.28049,0,0,0,777.81055-12.58C735.32123-159.1975,673.5057-285.406,603.37079-376.87268Z" transform="translate(137.69078 533.60693)"/><path class="a" d="M118.85258,49.21006C76.47734,109.68349,40.933,170.54164,12.743,229.73783-120.7421,74.89308-174.58821-82.57833-111.17177-183.15385c43.16058-68.45072,133.5235-99.23821,249.0259-95.00136C115.70744-185.20954,108.59313-72.72793,118.85258,49.21006Z" transform="translate(137.69078 533.60693)"/><path class="a" d="M826.356,228.12693a1241.9363,1241.9363,0,0,0,75.63339-132.291C1076.0849,269.13364,1154.545,455.83987,1082.771,569.67c-48.104,76.29058-154.83674,105.80294-289.66659,92.1737C832.734,549.2662,845.81128,396.34153,826.356,228.12693Z" transform="translate(137.69078 533.60693)"/><path class="b" d="M145.94831,230.48617a1453.60514,1453.60514,0,0,0,46.29476,167.42617C122.73707,344.23827,62.25463,287.172,12.743,229.73783c28.19-59.19619,63.73434-120.05434,106.10959-180.52777A1448.95153,1448.95153,0,0,0,145.94831,230.48617Z" transform="translate(137.69078 533.60693)"/><path class="b" d="M803.53943,89.7883Q792.28793,37.20136,777.81055-12.58A1303.28049,1303.28049,0,0,1,901.98935,95.83594a1241.9363,1241.9363,0,0,1-75.63339,132.291C821.13107,182.95173,813.57255,136.68075,803.53943,89.7883Z" transform="translate(137.69078 533.60693)"/><path class="a" d="M793.10443,661.84373c-36.23224,102.926-94.64632,172.135-170.7041,188.40828-94.79979,20.28328-198.23687-45.684-287.06794-167.56979,53.6081-25.70327,109.323-60.09828,165.03682-102.25071C604.29215,625.41991,704.73432,652.9109,793.10443,661.84373Z" transform="translate(137.69078 533.60693)"/><path class="a" d="M137.85412-278.15521c32.784-137.58859,98.45034-232.39837,189.23329-251.82233,90.98564-19.46714,189.9338,40.49159,276.28338,153.10486C530.031-344.17467,452.18363-294.6515,375.43-230.83008,290.10585-259.55879,209.18666-275.53855,137.85412-278.15521Z" transform="translate(137.69078 533.60693)"/><path class="b" d="M306.46329,477.6768A1430.781,1430.781,0,0,0,500.36921,580.43152C444.65534,622.58395,388.94049,656.979,335.33239,682.68222c-55.20185-75.743-104.75793-173.07207-143.08932-284.76988C228.01546,425.53669,266.16483,452.26724,306.46329,477.6768Z" transform="translate(137.69078 533.60693)"/><path class="b" d="M665.13582-91.16076C567.83963-152.50955,468.99191-199.32773,375.43-230.83008c76.75365-63.82141,154.601-113.34459,227.94082-146.0426C673.5057-285.406,735.32123-159.1975,777.81055-12.58,742.48294-39.78319,704.85712-66.115,665.13582-91.16076Z" transform="translate(137.69078 533.60693)"/><path class="b" d="M204.24733-60.99839c-30.94349,36.272-59.439,73.1671-85.39474,110.20845-10.25945-121.938-3.14514-234.4196,19.00154-327.36527,71.33254,2.61666,152.25172,18.59642,237.57585,47.32513C316.90364-182.16483,259.01325-125.1951,204.24733-60.99839Z" transform="translate(137.69078 533.60693)"/><path class="b" d="M715.84972,375.44761A1448.52245,1448.52245,0,0,0,826.356,228.12693c19.45533,168.2146,6.37806,321.13927-33.25153,433.71681-88.3701-8.93283-188.81227-36.42382-292.73522-81.41222C573.8393,524.84495,647.29153,455.81159,715.84972,375.44761Z" transform="translate(137.69078 533.60693)"/><path class="c" d="M118.85258,49.21006c25.95577-37.04135,54.45125-73.9364,85.39474-110.20845C259.01325-125.1951,316.90364-182.16483,375.43-230.83008c93.56193,31.50235,192.40966,78.32053,289.70584,139.66932C704.85712-66.115,742.48294-39.78319,777.81055-12.58Q792.21563,37.12744,803.53943,89.7883c10.03312,46.89244,17.59165,93.16343,22.81653,138.33862A1448.52245,1448.52245,0,0,1,715.84972,375.44761c-68.55819,80.364-142.01042,149.39734-215.48051,204.9839A1430.781,1430.781,0,0,1,306.46329,477.6768c-40.29846-25.40956-78.44783-52.14012-114.22023-79.76446a1453.60514,1453.60514,0,0,1-46.29476-167.42617A1448.95153,1448.95153,0,0,1,118.85258,49.21006Z" transform="translate(137.69078 533.60693)"/><path class="d" d="M822.06541,251.40338c-3.22562-7.353-9.11656-19.27886-24.93348-24.8157-15.81711-5.53675-26.22983-16.405-45.49175-20.93212-19.2623-4.52714-37.85968-18.20462-37.85968-18.20462v0c-18.52212-10.51789-57.3011-38.55677-78.8257-51.74911-23.89038-14.64249-31.597-9.24789-60.11129-30.05564S485.25458,18.17656,480.8233,10.08466,465.60282-8.60379,464.83216-8.98912s-.38533-19.4591-.19266-22.54173,1.58158-4.77437,9.5049-2.56889c12.45884,3.468,8.86256,10.66079,13.2295-3.72478,4.36731-14.38567-.38533-37.12007,1.92664-40.45952s3.59646-10.27546,10.53238-17.21138,6.67909-16.69755,6.03675-21.57841c13.10118-3.468,27.35834-27.35834,31.21163-33.13827s3.85329-16.18381,0-34.67959-15.79848-24.661-19.90859-26.58768-6.67909,1.63765-6.67909,1.34865-4.43128-.289-11.65619-.38533-5.9726,2.4083-9.44055,3.27529-16.66547-1.734-17.24346-2.11931-1.34865-.289-1.92664.77066-.12832,2.72938-.12832,4.367-3.37163,1.4129-3.37163,1.4129c-1.156.38533-1.413,2.601-1.413,2.601s-2.11931-.867-2.11931.578.00075,2.64866-3.44425,3.31612c-3.652,1.40415-4.776,4.58312-2.27133,7.85841s6.005,8.95889,2.922,22.4454c-2.91932,12.77173-8.0919,11.55986-8.0919,11.55986-5.77993-5.00927-4.23862-23.50505-5.3946-27.35834s-24.33987-26.26661-24.91786-27.74367,3.33945-2.95422,3.33945-3.40371-1.41281-5.65152-1.41281-5.65152a11.14111,11.14111,0,0,1,5.74776-1.34865c7.99557.19266,4.23862,5.77993,11.93672,10.78921,8.95043,4.43128,9.35269-3.94962,9.54535-6.26159s4.23862-.578,4.23862-.578c2.6973-.16058,2.66626-3.37087,2.66626-3.37087,4.33495,1.734,5.39366-1.3494,5.39366-1.3494s-.289-3.66062,2.055-5.41652c1.40453-1.05213,1.92664-.55607,3.85329-.07441s5.10561-1.445,3.468-3.757-1.50914-17.33979-1.50914-17.33979c8.80641,4.44,15.82812,7.78046,19.68141,9.065s-2.98377-10.09253-8.63538-16.51461c-5.65143-6.42218,6.93592-40.588-2.82562-40.588-9.76172,0-39.56054-12.33052-46.11113-12.97267S421.29-290.66444,418.84972-291.4351c-2.44048-.77066-17.09621-4.87118-17.22472-.4399s10.60978,10.26579,10.60978,10.26579c-5.2661,2.11931-9.40838,9.6653-8.76623,9.31214a3.03523,3.03523,0,0,1,1.63765-.19266c-2.08713,1.05965-3.757,9.3763-3.30728,8.92672a3.76981,3.76981,0,0,1,1.50914-.67433c-1.25232,1.47716-.578,5.41963-.578,5.41963s-4.11011,1.09888-4.62395.19981-3.08263,0-3.08263,0-2.312-11.04612-6.93592-16.18381-6.42208-43.15682-8.73406-54.20294c5.3946-8.73415,1.79814-11.30295,2.05506-14.38558s8.22032-8.47723,10.53229-10.53238.25692-3.85329-4.62395-5.90834-3.85329-5.90834-11.55977-9.50481-25.4317,26.973-25.4317,26.973l-2.56889,3.33955a44.72381,44.72381,0,0,0-8.73415,4.367c-16.18381,10.01855-66.27655,57.54249-70.64357,63.70775s-1.54131,5.3946,6.16526,19.26644,25.4317,25.68852,33.13827,27.48675,8.48429,9.5494,8.48429,9.5494c.58333,6.72917-1.03464,18.96493-13.36516,40.54334S247.31417-60.81584,250.3968-55.42123s21.57841,1.54132,21.57841,1.54132C259.625-24.875,283.25-12,283.25-12h0c15.41315,10.50576,27.25809,29.79123,27.25809,29.79123s-14.64249,0-45.46879,5.3946S244.23154,54.01213,251.325,76.3612,301.00337,153.17,301.00337,153.17s-3.86081,3.57276-9.19022,8.51947h0s-11.21038,10.35543-20.30511,18.92071c-4.83016,4.52846-8.77385,8.26011-10.322,9.80829a6.52458,6.52458,0,0,0-.72033.86755l-.04205.04516c-2.94011,3.27144-22.74268,20.53719-22.35735,22.07851,0,0-6.42218,2.56889-6.03685,6.03685s-7.74176,5.89536-3.88847,9.74865c0,0,1.33388-2.36305-.82936,1.87556s-1.26417,12.26627-1.26417,14.32132-2.24781,8.34882-.96332,9.24789,57.73506,1.60557,64.79939,1.9909,7.32125-1.09173,7.32125-1.09173,1.49607-6.42237-10.71545-8.02784a43.53912,43.53912,0,0,1-17.88966-6.3297,13.12482,13.12482,0,0,0,1.51319-4.25762c.15165-1.40246,20.01659-19.62279,36.27453-34.32286,2.65826-2.20266,5.098-4.299,6.87373-5.968,8.16133,8.88815,14.45839,25.53979,14.45839,25.53979s13.35809,26.3017-6.42218,29.38433c-8.991,2.6973-5.90834,8.99107-5.90834,8.99107s25.72784-.87141,27.91131-.87141,7.15361-5.97118,7.15361-5.97118,3.85329-13.22968,5.523-19.65177c4.62395-4.23862,14.12875,16.0553,14.12875,16.0553l4.62395-1.156-1.54131-1.79814c-3.39627-3.89741-4.56854-9.21863-4.80033-14.40514,33.46951.33961,99.21867,1.19681,122.63511,2.85563,3.74134,3.63776,6.75473,6.44692,6.75473,6.44692l11.01235-7.41645c-.44591,9.30687,3.19627,12.20992,3.19627,12.20992v6.67909c2.312,4.62395,19.26644,2.82571,19.26644,2.82571v-5.65152s3.85329.25692,20.55074,3.08263c16.69783,2.82581,45.7258-2.312,48.186-2.5688,2.46042-.25692-.14826-4.1102-.14826-4.1102,1.54132-4.88086-19.41056-10.63765-27.63078-12.179-6.26159-1.54131-2.80379-1.586-4.62395-3.66062-6.16526-6.93592-18.86568-16.01429-18.86568-16.01429,4.80118-9.16059-20.49242-27.59814-20.49242-27.59814h0l-30.9644-34.224-2.569-42.64308s31.854,15.41315,62.16644,33.90893,30.31247,7.19283,52.91855,20.55084c22.60589,13.35809,53.689,22.09224,91.83656,38.27605,3.293,1.397,6.33384,2.78112,9.14817,4.15912l-.00809.05381,12.119,6.71682.00038.00028.00019.00009,15.3663,8.51656s6.58765,8.777,11.74745,9.94178,30.1388,14.54983,33.3554,16.9936c2.37406,1.80359,2.72665,1.53068,2.749,1.26389.20565,1.12466,2.15,6.919,20.38066,6.41277C826.65549,257.01811,825.291,258.75642,822.06541,251.40338ZM308.33333-267.83333c4.47017-4.51628,2.94541-8.25287,13.99153-15.70252s30.05564-25.17478,31.85388-27.48675,9.76163-10.01855,9.76163-10.01855l-.25692-3.59646,2.56889-2.05506s1.54131,13.61492,1.79823,22.34907,0,39.56045,0,39.56045-.77066,4.11011-4.36712,0-7.70658-10.01855-16.44063-10.01855-11.04612,4.367-18.239,5.90834S309.79167-262.54167,308.33333-267.83333ZM293.55362,68.2693s43.92748,1.156,54.71668-3.468V78.67317s-10.84349,27.95477-27.35834,49.32208l-3.468,3.08263S303.9575,72.50791,293.55362,68.2693Z" transform="translate(137.69078 533.60693)"/><path class="d" d="M240.37745,310.0886a43.57682,43.57682,0,0,1,2.35615-7.96362,14.69253,14.69253,0,0,1,3.40721-5.09475,13.13233,13.13233,0,0,1,5.35362-2.84551,61.10383,61.10383,0,0,1,8.10975-1.60012,73.01974,73.01974,0,0,1,14.70373,23.36282,134.78248,134.78248,0,0,1,7.18774,26.68465q2.06425,14.82309,3.44965,29.37737,1.38451,14.56288,3.44965,29.37737,2.76315,21.69135,5.84147,42.88677,3.072,21.21083,5.84147,42.88676,1.30855,9.62266,3.02681,19.14842,1.70877,9.53347,3.5097,19.45529a94.40268,94.40268,0,0,0,2.959,10.48713,55.05743,55.05743,0,0,1,2.47458,10.18619q1.48738,10.4062-3.2032,14.34183-4.69725,3.93712-12.78971-.86329a25.71478,25.71478,0,0,1-9.42645-8.01512q-3.34969-4.83236-4.49023-13.66348-1.71687-16.959-4.80635-33.61766-3.09363-16.65215-6.38321-33.26623-5.96581-30.46339-9.23911-60.9219-3.2804-30.44012-6.31226-60.7452a32.68009,32.68009,0,0,0-1.16331-7.997,29.41617,29.41617,0,0,0-3.61113-7.87161,14.98646,14.98646,0,0,1-1.00335,2.91223,12.039,12.039,0,0,0-.91653,3.30178q-1.79054,12.38022-3.76757,24.79079-1.98265,12.423-3.28468,25.09767-1.35349,14.34129-1.95055,28.30675-.60209,13.98059-1.16226,28.13667l-1.086,11.8031a23.23457,23.23457,0,0,1-1.114,3.34578c-.45062,1.06945-.94185,1.655-1.46214,1.771q-4.24518,1.3662-8.48206,2.71934a20.27505,20.27505,0,0,1-8.91823.74967,26.68293,26.68293,0,0,1-8.76736-3.21046,32.16354,32.16354,0,0,1-7.72149-5.91932,160.23667,160.23667,0,0,1-12.05309-14.24651q-5.583-7.42655-11.74769-14.72347-8.70528-11.27616-17.45724-22.74917-8.75032-11.45937-17.85093-22.65583c-.44282-.7303-1.942-1.90293-4.50776-3.538q1.04854,8.43712,2.04237,15.64855.99042,7.215,2.56664,14.29383,2.19418,9.84538,4.97446,19.54335,2.78472,9.70537,5.36815,19.45a46.28436,46.28436,0,0,1,1.09788,8.63338,45.93,45.93,0,0,0,1.09907,8.63871q4.68965,22.90878,8.94723,45.701a276.33955,276.33955,0,0,0,12.57584,45.30682,47.5514,47.5514,0,0,1,2.81456,27.45763q-1.134,6.03326-3.75671,9.09355-2.62348,3.06325-8.26052,1.841a55.5753,55.5753,0,0,1-11.74117-3.57275q-5.713-2.44885-11.69831-5.24028a5.986,5.986,0,0,1-2.62407-2.51271,11.458,11.458,0,0,1-1.62077-3.5653L130.73182,531.511q-2.36722-10.62181-5.08651-20.96351-2.71706-10.32539-5.08265-20.95877-2.94231-15.03069-6.031-29.83833a259.09208,259.09208,0,0,0-7.99617-29.39475q-4.86259-16.25791-8.06418-32.47711Q95.265,381.66324,91.5853,365.13331q-1.48955-6.68366-2.74-13.22454-1.25063-6.53526-3.13491-13.13654-2.62945-11.79845,3.007-18.01177,5.63516-6.213,15.51921-2.63529c2.33143.58386,3.84337,1.21033,4.54914,1.87643a51.7113,51.7113,0,0,0,6.55946,5.35491q3.40776,2.34085,6.825,4.674a61.803,61.803,0,0,1,6.51693,5.15154,19.831,19.831,0,0,1,4.94388,7.36734,134.33492,134.33492,0,0,1,16.10058,16.64924q7.39061,9.09058,14.24237,18.5029,6.84288,9.4227,13.73924,19.03512A214.642,214.642,0,0,0,192.305,414.96a90.99348,90.99348,0,0,1,6.28073,8.71619q2.86606,4.52845,5.97385,9.19908l8.35386,9.6993,1.25941-14.732q.821-16.69279,1.53319-32.96924.71054-16.26488,2.01193-32.65584.73192-9.66572,2.24138-18.67012,1.49507-9.0124,2.24019-18.67546,1.91431-13.63448,13.0631-13.64338a6.87056,6.87056,0,0,0,2.799-.42215A14.9815,14.9815,0,0,1,240.37745,310.0886Z" transform="translate(137.69078 533.60693)"/><path class="d" d="M364.09786,511.30066q2.788-5.98179,5.45648-12.57548,2.656-6.57411,5.61111-12.81159a85.84893,85.84893,0,0,1,6.19953-11.0887,40.51728,40.51728,0,0,1,6.35821-7.612q-1.26439,7.31421-3.925,17.6002-2.66041,10.30556-5.738,19.65664-3.07993,9.36561-5.89013,16.18414-2.81553,6.81971-3.99811,7.08047-2.75751.61455-8.78622,1.342-6.03123.7224-8.65535.06934a12.10228,12.10228,0,0,1-9.88534-5.43708,47.22,47.22,0,0,1-5.823-11.29957,81.46467,81.46467,0,0,1-3.52594-13.04379A82.47012,82.47012,0,0,0,327.969,486.316c-.05827-.26148-.20265-1.19832-.41622-2.79751q-.33414-2.4041-.79229-5.40232a45.54435,45.54435,0,0,0-1.31532-5.90189,28.77874,28.77874,0,0,0-1.59815-4.39373q-1.71094-5.81092-2.628-9.94474c-.61366-2.75351-1.11233-5.59425-1.49276-8.54537a71.9581,71.9581,0,0,1-.52961-9.79066q.04252-5.36992.42974-12.90034a24.93,24.93,0,0,0,1.7864-6.8004q.43676-3.60095,4.58919-5.35817,5.32819-2.01085,10.94864-3.67795,5.61349-1.65434,12.57084,1.74106a41.33628,41.33628,0,0,0-1.27684,21.13818q2.1203,10.47519,4.88907,21.00751a86.14715,86.14715,0,0,1,2.608,12.63222q1.07383,7.6081,2.28381,15.802,1.20584,8.20042,2.67722,15.71992A73.05666,73.05666,0,0,0,364.09786,511.30066Zm-24.25477-125.508q-7.73427,4.20227-13.83558,1.84557-6.09938-2.35432-8.818-10.83935a81.60441,81.60441,0,0,1-4.58634-32.63045,285.99789,285.99789,0,0,1,4.02382-32.90257,9.84653,9.84653,0,0,1,2.66293-4.72723,12.92109,12.92109,0,0,1,4.58914-3.49853,12.00392,12.00392,0,0,1,8.80879-.31078,18.64453,18.64453,0,0,1,7.54548,5.12956,27.43317,27.43317,0,0,1,5.20671,8.54666,25.32173,25.32173,0,0,1,1.79959,9.92212q-2.31679,10.01893-3.79033,20.05157-1.48154,10.03443-3.00709,19.87141a36.79469,36.79469,0,0,0-.73652,9.66394Q339.964,380.80582,339.84309,385.79271Z" transform="translate(137.69078 533.60693)"/><path class="d" d="M428.638,248.718q6.33985.66235,7.67343,2.00913c.88531.90615,1.37813,3.40652,1.46871,7.52009l-.09252,64.44112a40.32107,40.32107,0,0,1-.67109,9.02761,66.58732,66.58732,0,0,0-1.06478,9.121q-1.52831,13.55686-2.739,24.76882-1.21753,11.21908-2.939,21.09413-1.72447,9.88692-4.11978,19.50325-2.4042,9.62671-5.88875,19.89749-3.49744,10.28205-5.63111,15.49907a17.58944,17.58944,0,0,0-.91258,10.73382l2.23581,10.03215a67.73606,67.73606,0,0,1,1.4499,10.21291q.43488,5.68362,1.6261,14.71069,1.18055,9.02945,2.612,18.20462,1.431,9.19207,2.67865,17.57363,1.24865,8.39253,2.217,12.725a1.35817,1.35817,0,0,0,.85248,1.0479,9.39315,9.39315,0,0,1,1.63958.87248l4.37432,1.092a79.67539,79.67539,0,0,1,3.6648-7.63353q3.45067-6.75962,7.46813-14.67059,4.0139-7.927,7.2695-14.63192,3.24834-6.70612,3.47388-7.58538,2.83282-7.647,4.86421-14.30312a121.48563,121.48563,0,0,1,4.47314-12.35073,90.231,90.231,0,0,1,5.61254-10.95788,60.8394,60.8394,0,0,1,8.19118-10.49633,208.65379,208.65379,0,0,1-2.6976,21.24757q-1.69918,9.05789-3.59813,16.28948-1.8991,7.23722-3.70747,13.00908-1.80792,5.78016-3.42464,11.50091a38.49729,38.49729,0,0,1-2.54954,11.72038,66.10087,66.10087,0,0,1-6.39821,12.987,87.72385,87.72385,0,0,1-8.60483,11.4175q-4.63913,5.15925-9.26511,6.60751a37.95789,37.95789,0,0,1-17.204,1.56q-8.32867-1.23575-15.67918-8.274a46.3306,46.3306,0,0,1-7.43861-9.28713,88.04675,88.04675,0,0,1-5.77517-11.09738q-2.54-5.83621-4.49028-11.80384a104.85408,104.85408,0,0,0-4.35828-11.21151,24.3707,24.3707,0,0,1-1.99174-8.01967,37.5489,37.5489,0,0,0-1.69139-8.5067,249.01733,249.01733,0,0,1-8.22409-45.246q-1.95965-22.68541-2.14885-45.771-.0526-16.91819-.06239-33.64428-.01379-16.7252.81-33.42422a277.48989,277.48989,0,0,1,3.2393-29.00846,193.07769,193.07769,0,0,1,7.04154-28.62356q2.92018-10.96839,11.88527-13.38648,8.87191-2.79222,17.83507-5.21269A49.7644,49.7644,0,0,1,428.638,248.718Zm-3.737,38.82644q-.35369-5.28161-.74843-10.77253a15.58368,15.58368,0,0,0-4.6851-9.90079q-5.20621.74858-6.31411,4.09021a22.85272,22.85272,0,0,0-1.19941,6.66959q-.21556,4.59349-.56432,8.58932-.34579,4.00917-.95535,8.68207-1.57093,11.49948-3.37531,22.84374-1.80585,11.35019-3.37412,22.84908a101.15387,101.15387,0,0,0-.75771,12.34608q-.02365,6.416.11858,12.57089.0445,9.49268.75357,18.20991.70671,8.73176,1.54067,18.03449.52229,6.07583,1.45133,12.06662.91851,5.98753,1.53815,12.45616a1.62813,1.62813,0,0,1,1.02587-.02138c.16166.10961.50025.09576,1.02854-.022l1.26475-3.58663a322.47733,322.47733,0,0,0,11.94032-66.87432A672.85927,672.85927,0,0,0,424.901,287.54441Z" transform="translate(137.69078 533.60693)"/><path class="d" d="M549.46478,444.38549a4.62934,4.62934,0,0,0,3.49922.87253,11.362,11.362,0,0,0,5.00541-2.56066,48.49094,48.49094,0,0,0,4.71734-4.77059q2.468-2.81855,5.6365-6.21332a55.69424,55.69424,0,0,1,8.14975-6.97508,54.4865,54.4865,0,0,1-.64971,10.05349q-.83139,5.56253-6.37559,12.15857-5.07035,6.91894-8.80489,9.60246-3.736,2.68945-10.95126,1.8189a1.6265,1.6265,0,0,1-1.26613-.12672q-.21556,4.59349-.47632,8.98421a82.70234,82.70234,0,0,1-6.27963,25.55789q-3.62925,7.82445-14.15846,10.58833-17.62006,4.33017-35.89692-3.56093a23.15338,23.15338,0,0,1-9.64651-7.14269,30.88409,30.88409,0,0,1-5.44958-10.5538l-8.33076-37.38044a30.14769,30.14769,0,0,0-.98325-3.49453,28.42228,28.42228,0,0,1-.98711-3.49927l-3.24964-25.70268a279.2528,279.2528,0,0,1,.654-36.90146,303.925,303.925,0,0,1,5.33257-36.29176l2.22528-6.691q2.74357-11.76082,16.43175-11.50946,7.52449.39834,15.15219.34238,7.6234-.0438,15.45373-.13932a2.71248,2.71248,0,0,0,.46027,1.13531,2.85139,2.85139,0,0,1,.46027,1.13531q-4.01973,4.20622-8.32462,8.05029a41.38436,41.38436,0,0,0-7.3627,8.65931,43.4352,43.4352,0,0,0-4.12369,10.21157,18.17662,18.17662,0,0,0,.64018,11.21675q9.48378-.04672,18.84237-.69288,9.35356-.631,19.54266-1.25784l14.57835,30.20194a20.49889,20.49889,0,0,1,.39617,7.34463q-.47779,3.41685-1.26217,7.30532c-.52559,2.59291-1.03762,5.53568-1.54619,8.80815a91.52933,91.52933,0,0,0-.934,11.56758Zm-23.67186,38.31205q1.91035-9.91994,2.96042-20.06826,1.04073-10.14623,2.08532-20.28773l-2.31981-4.85464q-3.46263-6.24393-6.89834-18.90173-.76382-2.81153-1.41309-5.7a134.308,134.308,0,0,0-16.79119-41.70859c-.76685-1.23049-1.40945-2.21855-1.87156-2.83624-2.74337-3.65119,1.17023,5.25087,0,0a10.32934,10.32934,0,0,1-3.23639.30678c-.35228.9075-.71349,1.74978-1.08869,2.51676a6.95968,6.95968,0,0,0-.70033,2.4246,281.23569,281.23569,0,0,0-.97691,45.64422,370.85384,370.85384,0,0,0,5.756,46.21057,56.95758,56.95758,0,0,0,2.93485,11.3215q2.09916,5.72441,4.59972,11.365a12.55282,12.55282,0,0,0,2.9309,3.88946,8.08561,8.08561,0,0,0,4.24227,2.35931,4.03844,4.03844,0,0,0,3.65-1.228,32.25706,32.25706,0,0,0,3.21239-3.1917A12.23734,12.23734,0,0,0,525.79291,482.69754Z" transform="translate(137.69078 533.60693)"/><path class="d" d="M679.8333,440.10554a114.17063,114.17063,0,0,0,13.38741-20.53243q6.831-12.87341,11.50643-23.418,4.38075,15.962,2.55316,28.132-1.83514,12.18011-6.24082,20.1776-8.82384,12.30091-19.53346,12.408-10.71747.12842-22.86982-6.257a13.65164,13.65164,0,0,1-7.524-7.823q-4.25289-9.78987-7.37856-19.20921a31.58143,31.58143,0,0,1-.03453-19.608L649.32247,379.18a74.64736,74.64736,0,0,0,1.34623-14.34247q-.0081-7.42551-4.07416-16.43363a54.98136,54.98136,0,0,1-4.4117,6.142,21.90942,21.90942,0,0,0-3.10181,4.61779q-9.04109,24.31369-18.313,48.47157a286.38636,286.38636,0,0,0-14.15484,50.44074q-.874,3.50515-1.9425,7.04244-1.06612,3.548-2.332,7.12926a27.47894,27.47894,0,0,1-19.56666-1.62708,21.00535,21.00535,0,0,1-11.61687-14.13648,143.82274,143.82274,0,0,1-3.5537-19.65274q-1.66823-13.04612-2.98943-26.38242-1.85086-15.694-3.25478-33.14006a5.36756,5.36756,0,0,0,1.00192-4.76594,39.61561,39.61561,0,0,1-.8351-5.59442c-.23309-1.04591-.50829-2.56974-.81105-4.56914q-.46215-2.99732-.68166-5.83587a29.28786,29.28786,0,0,1,.04267-5.37555,8.65754,8.65754,0,0,1,.87253-3.49922c.40374-.63891,1.70795-1.27125,3.91025-1.90769a23.401,23.401,0,0,1,7.25722-.78838,29.89915,29.89915,0,0,1,7.49742,1.21936,6.80377,6.80377,0,0,1,4.72658,4.5199l4.20474,15.17224a21.5686,21.5686,0,0,0,.94706,10.73387,46.84692,46.84692,0,0,1,2.30386,11.25487q.26006,4.89919.28816,9.63722.02514,4.7499.292,9.642l2.31724,1.136a18.47694,18.47694,0,0,1,2.57607-3.25713,8.78511,8.78511,0,0,0,2.09851-3.5652,197.05164,197.05164,0,0,1,14.51881-30.28438,282.88943,282.88943,0,0,1,18.75989-27.9304,33.00149,33.00149,0,0,1,11.493-9.57979c3.49266-1.60738,6.51853-1.92886,9.07167-.99111a35.54549,35.54549,0,0,1,8.81279,5.26161,25.81533,25.81533,0,0,1,7.76539,9.836,30.94292,30.94292,0,0,1,2.1278,12.32475q.00376,14.8706,1.13236,30.10106a143.74352,143.74352,0,0,1-.92087,30.14975,28.57592,28.57592,0,0,0-.21082,10.16292Q672.70216,435.91148,679.8333,440.10554Z" transform="translate(137.69078 533.60693)"/><path class="d" d="M789.53546,311.59039q1.92621,12.37528,4.36356,24.21654,2.42713,11.85195,4.75963,24.13387,1.48916,10.4142,2.7,20.45914a91.82215,91.82215,0,0,0,4.58105,19.62542q1.5299,5.03628,3.02286,11.71638,1.49312,6.69966,2.47982,13.90428.98864,7.207,1.889,14.03036.89722,6.81566,1.6461,12.02321l1.19384,22.03269a173.75539,173.75539,0,0,1-.54465,38.32222,136.69114,136.69114,0,0,1-10.29393,37.19022,41.94216,41.94216,0,0,1-15.55269,19.161,164.644,164.644,0,0,1-18.42339,10.91709,122.36964,122.36964,0,0,1-19.51608,7.86145q-6.20982,1.78724-9.15967.59623-2.95564-1.19812-5.44553-6.841a138.26052,138.26052,0,0,1-10.92969-35.14325q-2.882-17.5311,4.45747-36.51122a67.98353,67.98353,0,0,1,13.16859-21.5143,53.807,53.807,0,0,1,19.731-14.31162,9.23748,9.23748,0,0,1-.23482,7.278,27.99552,27.99552,0,0,1-3.90886,5.621q-12.41814,14.74033-14.93513,31.20615a132.60472,132.60472,0,0,0-.54722,34.60353,29.28746,29.28746,0,0,0,3.023,7.9971q3.231,7.12734,11.93713,3.53467,9.78676-4.248,14.52929-11.70162a40.37942,40.37942,0,0,0,5.87142-17.21061q1.03851-10.13734,1.53824-21.81258.4932-11.67939.26978-23.80962-.22535-12.1326-1.15246-23.6943-.93037-11.56378-2.32915-21.57242-.264-1.18465-1.14045-6.97711-.88592-5.78474-1.889-14.03036-1.01195-8.23523-2.28376-17.66163-1.27418-9.41187-2.52521-17.81507-1.25265-8.39163-2.26243-14.77612-1.01392-6.378-1.44609-8.34852-.61583.969-1.3728,7.73887-.76126,6.782-1.54224,16.24019-.78453,9.46739-1.30089,20.11291-.51651,10.65115-1.14478,19.87087-.63523,9.23247-1.28084,15.56579c-.43771,4.23131-.75862,6.49853-.958,6.823a24.59562,24.59562,0,0,1-7.8203,7.5234,25.2505,25.2505,0,0,1-10.70986,3.832,23.05151,23.05151,0,0,1-10.82063-1.30213q-5.18473-1.94483-8.24833-8.28328l-14.04884-27.83858a4.93844,4.93844,0,0,1-1.40076-2.57809,9.99175,9.99175,0,0,0-1.57677-3.36786l.48022.30747a95.6086,95.6086,0,0,1-5.43468-22.5383q-1.3168-11.46925-1.85288-28.697.46569-10.84147,1.07821-21.09952.6017-10.25,1.47428-21.18219a25.08709,25.08709,0,0,1,3.62208-11.54492q3.05026-4.80515,9.87738-7.56736,9.96158-3.46357,19.88568-7.12043a48.60758,48.60758,0,0,1,20.854-2.788,14.05823,14.05823,0,0,1,2.97352.37355c.87391.21413,2.02328.44529,3.45522.67509q.18253,11.94049-10.267,11.37345-7.1345-.47685-10.491,2.95421a15.72463,15.72463,0,0,0-4.10373,9.38373q-2.17876,12.46674-3.921,25.03224a96.1827,96.1827,0,0,0-.11491,25.42188q1.4,10.014,2.76541,19.82281,1.35715,9.82188,3.46569,19.25785a50.023,50.023,0,0,0,3.54975,12.2207q2.54,5.83621,4.81587,12.34742l2.36129-.52625a26.54356,26.54356,0,0,1,1.246-2.75346,15.03317,15.03317,0,0,0,1.15412-3.15308q1.254-18.44448,2.64569-36.30909,1.38025-17.85927,1.8574-36.139a32.8226,32.8226,0,0,0-1.14326-12.54417,68.5436,68.5436,0,0,1-2.41325-12.67563c-.85077-5.0364-.75225-8.30151.3003-9.774q1.57084-2.20691,8.61-5.83977Q773.65958,308.93072,789.53546,311.59039ZM703.68908,417.44733a1.62516,1.62516,0,0,1-.65771-1.09131Z" transform="translate(137.69078 533.60693)"/><path class="d" d="M933.59332,387.27077a151.02788,151.02788,0,0,1,13.05806-24.8,154.39244,154.39244,0,0,1,18.609-23.97027q-2.48756,12.94725-4.88288,22.56358-2.4042,9.62671-5.03765,17.232-2.63893,7.61215-4.99741,13.70545-2.35743,6.10428-4.36518,11.91777a24.03859,24.03859,0,0,1-7.71091,8.94416,20.49863,20.49863,0,0,1-10.31765,3.74457,25.0279,25.0279,0,0,1-10.90864-1.697,21.94663,21.94663,0,0,1-9.49307-7.38413,53.92037,53.92037,0,0,1-5.99262-8.3659q-2.67217-4.56326-6.43412-10.33439-2.22321,6.68771-4.03692,12.46076-1.80971,5.77216-3.02976,11.41291-2.88556,13.02755-9.12771,16.48558-6.25683,3.4613-16.26236,4.86778a45.42107,45.42107,0,0,1-15.4323-.69445,25.79905,25.79905,0,0,1-13.38332-8.16391,29.5603,29.5603,0,0,1-2.25586-5.485q-1.68363-4.78357-3.61518-11.58437-1.93036-6.79546-3.48308-14.71133a91.2295,91.2295,0,0,1-1.77954-14.46924q.20158-19.45341,2.97266-32.05216,2.77286-12.59074,5.51777-24.35186,1.08919-4.36809,2.18133-8.74805a71.00372,71.00372,0,0,1,2.66155-8.44058q2.52579-7.15843,10.4858-8.53194a88.97045,88.97045,0,0,0,13.11511-2.30114,90.48562,90.48562,0,0,1,13.11511-2.30114,47.10215,47.10215,0,0,1,8.81027-.31671q4.39427.26416,9.07281.87387a7.89006,7.89006,0,0,1,2.6895,1.87638q1.328,1.35923,4.00344,4.06492-4.94219,1.93323-8.502,3.54718a23.204,23.204,0,0,1-7.19183,2.0117q-5.20042.7557-7.90969,3.41517a24.41853,24.41853,0,0,0-4.89345,7.7001,102.10216,102.10216,0,0,0-5.3871,19.37119q-1.72447,9.88692-2.675,20.41914a189.07241,189.07241,0,0,0-.77519,20.61189,163.57647,163.57647,0,0,0,1.6753,20.48586L864.2233,407.688q2.21925-2.97317,3.494-4.7052a10.0458,10.0458,0,0,0,1.701-3.4766q3.49122-10.27226,6.19682-20.375,2.70679-10.09744,6.28363-19.98549,3.05821-8.52058,6.63441-16.55166,3.57843-8.01477,7.20412-15.85524,2.926-7.24763,9.96539-7.17247a7.80606,7.80606,0,0,0,2.99495-.46022,7.92174,7.92174,0,0,1,2.99376-.46556q12.76349-2.01273,15.958,1.19343,3.19615,3.2198,1.89012,15.89533a140.61366,140.61366,0,0,0-.48712,22.82181q.68166,11.40916,2.43854,22.99318a17.7807,17.7807,0,0,0,.7671,2.51206Q932.75872,385.3983,933.59332,387.27077Z" transform="translate(137.69078 533.60693)"/><path class="d" d="M224.68765,666.76362S533.01272,544.85841,607.57416,529.38373s54.85862,11.30277,54.85862,11.30277,9.66128,51.32343-46.12506,43.51334S224.68765,666.76362,224.68765,666.76362Z" transform="translate(137.69078 533.60693)"/></svg>